<?xml version="1.0" standalone="no"?>
<!DOCTYPE svg PUBLIC "-//W3C//DTD SVG 20010904//EN"
 "http://www.w3.org/TR/2001/REC-SVG-20010904/DTD/svg10.dtd">
<svg version="1.0" xmlns="http://www.w3.org/2000/svg"
 width="748.000000pt" height="748.000000pt" viewBox="0 0 748.000000 748.000000"
 preserveAspectRatio="xMidYMid meet">
<metadata>
Created by potrace 1.11, written by Peter Selinger 2001-2013
</metadata>
<g transform="translate(0.000000,748.000000) scale(0.100000,-0.100000)"
fill="#000000" stroke="none">
<path d="M6208 6625 c-18 -25 -35 -45 -38 -45 -4 0 -6 -24 -5 -52 1 -29 -4
-73 -12 -98 -7 -25 -13 -55 -13 -68 0 -13 -7 -37 -16 -54 -32 -61 -89 -333
-81 -384 3 -18 0 -40 -7 -50 -7 -11 -18 -53 -25 -94 -6 -41 -18 -109 -26 -150
-8 -42 -15 -89 -15 -106 0 -17 -3 -34 -7 -38 -4 -4 -8 -53 -9 -109 -4 -241
-16 -548 -24 -616 -5 -45 -5 -124 1 -199 6 -76 7 -127 1 -131 -15 -10 -22
-100 -13 -176 4 -38 4 -86 -1 -105 -4 -19 -8 -125 -7 -235 0 -110 -1 -247 -1
-305 -1 -58 -1 -130 0 -160 2 -78 -22 -411 -31 -437 -5 -13 -13 -23 -18 -23
-16 0 -188 163 -232 220 -24 30 -49 61 -56 68 -7 7 -13 19 -13 26 0 7 -15 30
-34 52 -18 21 -45 62 -59 90 -15 29 -41 73 -59 99 -18 26 -40 57 -48 70 -8 13
-26 36 -38 52 -39 46 -132 194 -132 208 0 7 -6 15 -14 18 -24 9 -136 194 -136
224 0 7 -11 18 -23 22 -23 9 -127 139 -127 158 0 6 -9 18 -20 28 -11 10 -20
22 -20 26 0 12 -60 99 -69 99 -4 0 -14 12 -22 28 -7 15 -33 52 -56 83 -24 30
-43 60 -43 66 0 5 -21 29 -46 51 -25 23 -43 46 -40 51 3 5 -9 22 -27 38 -17
16 -41 46 -52 65 -11 20 -42 63 -68 96 -44 55 -52 60 -98 66 -34 5 -57 2 -77
-8 -39 -20 -102 -87 -102 -108 0 -9 -4 -20 -10 -23 -5 -3 -10 -17 -10 -30 0
-13 -6 -28 -14 -32 -17 -10 -27 -109 -14 -143 5 -14 23 -39 39 -56 l30 -31 -2
-254 c-1 -140 -1 -270 -1 -289 1 -19 3 -179 5 -355 4 -318 20 -551 38 -570 5
-5 9 -29 9 -54 0 -60 21 -223 30 -236 4 -5 8 -48 8 -95 1 -47 7 -118 13 -157
6 -40 9 -88 6 -108 -8 -50 3 -106 22 -112 9 -2 27 -10 41 -16 42 -18 83 -14
103 10 10 12 27 25 38 28 17 6 20 13 16 35 -3 15 -1 32 6 39 9 9 9 14 -3 21
-14 8 -15 25 -22 310 -1 54 -33 360 -38 370 -4 6 -3 -4 -20 332 -11 220 -11
272 0 292 9 18 10 32 2 54 -6 18 -7 45 -2 67 4 20 6 62 4 93 -8 98 -8 184 -2
267 6 85 14 115 29 115 22 0 63 -37 98 -89 21 -31 66 -87 100 -124 33 -37 61
-75 61 -83 0 -21 68 -104 147 -180 47 -45 63 -67 63 -87 0 -15 5 -27 10 -27 6
0 20 -21 33 -47 12 -27 27 -51 34 -56 6 -4 22 -24 34 -45 12 -20 32 -48 45
-62 12 -14 32 -43 44 -65 52 -94 132 -223 150 -243 11 -12 20 -26 20 -31 0 -6
23 -41 50 -79 28 -38 50 -76 50 -85 0 -9 4 -17 8 -17 4 0 25 -24 47 -52 22
-29 62 -82 90 -118 27 -35 50 -73 50 -85 0 -13 7 -20 20 -20 20 0 125 -106
125 -127 0 -6 10 -22 22 -35 17 -18 19 -26 10 -35 -7 -7 -12 -25 -12 -40 0
-28 1 -29 45 -23 43 5 47 3 63 -25 9 -16 23 -30 30 -30 8 0 27 -14 44 -30 29
-29 31 -30 49 -14 14 13 31 15 69 12 34 -4 53 -1 61 8 6 7 20 14 32 16 12 2
23 12 25 23 2 11 11 27 18 36 15 17 46 309 39 365 -2 16 -6 88 -10 159 -3 72
-8 138 -11 148 -8 27 -14 303 -18 828 -2 257 -6 471 -10 477 -3 5 -1 68 5 138
6 71 10 199 9 284 -1 85 1 198 4 250 16 275 16 310 6 310 -15 0 -12 29 5 46 8
9 15 29 15 45 0 17 4 38 9 47 5 10 12 54 15 99 3 45 9 99 15 120 6 21 17 81
26 133 9 52 20 114 26 137 5 23 9 54 9 70 0 15 10 44 22 63 12 19 23 55 24 79
3 41 8 67 36 183 5 20 15 44 23 52 23 22 18 48 -16 94 -30 41 -33 43 -73 37
-22 -4 -54 -2 -69 4 -26 10 -30 8 -59 -34z"/>
<path d="M3134 5821 c-11 -5 -63 -12 -115 -15 -136 -9 -417 -25 -539 -31 -58
-3 -150 -12 -205 -20 -55 -8 -118 -14 -140 -13 -41 2 -145 -17 -180 -33 -11
-4 -67 -13 -125 -19 -57 -7 -108 -14 -113 -17 -5 -3 -39 -9 -76 -14 -36 -4
-91 -13 -121 -19 -30 -6 -86 -15 -125 -20 -38 -5 -95 -14 -125 -20 -30 -6 -92
-15 -137 -19 -45 -5 -97 -14 -115 -20 -18 -6 -76 -17 -128 -25 -52 -8 -124
-22 -160 -30 -36 -9 -79 -16 -96 -16 -59 0 -154 -53 -154 -86 0 -6 -17 -27
-37 -45 -59 -51 -60 -81 -7 -155 65 -91 106 -114 210 -118 46 -2 84 0 84 5 0
4 19 13 42 19 24 6 64 17 89 25 26 8 65 15 87 15 23 0 44 5 47 10 3 6 24 10
46 10 21 0 39 4 39 9 0 5 9 7 20 4 11 -3 26 0 33 6 12 9 43 15 194 35 13 1 26
6 30 9 3 4 29 7 56 7 33 0 57 6 69 17 14 13 23 14 42 5 28 -13 79 -2 106 23
13 12 26 13 66 6 71 -14 143 2 171 36 20 25 24 26 48 13 31 -17 123 -2 191 31
37 17 49 19 76 10 17 -6 36 -7 42 -3 6 5 37 15 69 22 52 12 61 12 87 -3 23
-14 29 -14 33 -3 8 20 54 25 77 9 18 -13 22 -12 38 6 16 19 19 20 48 5 22 -10
34 -25 38 -45 3 -17 17 -45 32 -64 16 -22 23 -41 20 -53 -4 -13 -1 -22 9 -25
20 -8 78 -101 96 -152 7 -22 23 -51 35 -65 12 -14 25 -36 29 -50 4 -14 22 -55
41 -91 19 -37 34 -79 34 -93 0 -14 4 -26 8 -26 5 0 15 -22 22 -50 8 -28 19
-50 27 -50 8 0 13 -12 13 -30 0 -16 11 -45 24 -64 23 -35 48 -100 61 -166 4
-19 16 -51 26 -70 11 -19 19 -41 19 -48 0 -8 6 -28 14 -45 26 -58 49 -146 62
-241 3 -22 11 -51 19 -65 7 -15 18 -53 25 -86 7 -33 16 -78 21 -100 11 -51 42
-284 40 -307 -1 -10 -1 -26 -2 -35 -1 -23 11 -224 18 -283 7 -73 5 -110 -8
-126 -9 -11 -9 -24 0 -57 14 -50 2 -156 -24 -211 -9 -19 -14 -44 -10 -55 3
-10 1 -22 -5 -26 -5 -3 -10 -23 -10 -43 0 -21 -6 -46 -14 -57 -7 -11 -16 -31
-19 -45 -4 -21 -28 -82 -61 -160 -3 -8 -20 -37 -36 -65 -17 -27 -42 -74 -56
-102 -14 -29 -30 -53 -36 -53 -5 0 -8 -6 -5 -14 3 -8 -5 -24 -18 -36 -13 -12
-26 -33 -30 -48 -3 -14 -27 -46 -53 -72 -61 -61 -112 -121 -112 -131 0 -5 -13
-15 -30 -24 -17 -9 -27 -21 -24 -29 3 -8 -4 -16 -18 -20 -13 -3 -47 -24 -76
-46 -29 -22 -62 -40 -74 -40 -12 0 -41 -9 -64 -20 -68 -33 -179 -60 -249 -60
-109 0 -243 40 -334 101 -31 20 -71 40 -90 44 -18 4 -42 14 -53 24 -50 40
-126 118 -137 138 -6 13 -17 23 -23 23 -13 0 -148 139 -148 153 0 6 -7 19 -17
29 -19 21 -36 49 -58 95 -8 17 -19 35 -25 38 -6 4 -8 10 -5 14 2 5 -4 16 -15
26 -11 10 -20 24 -20 31 0 7 -12 26 -26 43 -14 17 -23 31 -20 31 3 0 -8 24
-24 54 -17 30 -30 63 -30 74 0 10 -9 31 -20 45 -11 14 -20 34 -20 44 0 10 -7
28 -15 39 -8 12 -19 46 -24 75 -5 30 -16 80 -25 113 -20 71 -25 295 -9 406 6
41 19 98 30 126 25 64 83 143 105 144 9 0 18 10 20 23 2 12 9 21 17 19 32 -7
40 50 15 104 -13 28 -19 32 -34 24 -10 -6 -29 -10 -42 -10 -14 0 -35 -10 -48
-22 -38 -37 -74 -58 -97 -58 -13 0 -40 -21 -72 -57 -44 -50 -51 -64 -51 -101
0 -26 -9 -58 -22 -81 -21 -36 -21 -40 -6 -72 18 -37 10 -59 -23 -59 -15 0 -17
-5 -13 -30 4 -16 2 -36 -4 -43 -19 -22 -23 -224 -7 -287 8 -30 15 -70 15 -90
0 -51 57 -258 82 -300 5 -8 16 -32 26 -52 9 -20 27 -43 39 -49 12 -7 20 -15
18 -20 -3 -4 0 -20 6 -36 6 -15 15 -37 19 -48 22 -58 30 -74 64 -118 20 -26
36 -52 36 -59 0 -6 11 -26 25 -44 14 -18 25 -36 25 -39 0 -4 12 -21 26 -39 14
-17 43 -56 65 -85 22 -30 76 -94 122 -142 45 -47 90 -98 99 -112 10 -14 38
-38 62 -54 25 -15 48 -36 51 -45 7 -21 193 -147 245 -167 19 -7 67 -26 105
-41 75 -30 112 -37 247 -47 96 -6 161 3 278 41 90 29 229 99 296 148 48 36
257 247 323 328 38 45 151 220 151 233 0 5 14 28 30 52 17 24 30 52 30 63 0
11 6 22 13 25 7 3 19 24 27 48 8 24 29 72 47 107 18 35 33 69 33 76 0 7 9 32
21 56 11 23 27 66 35 94 21 73 45 314 43 426 -1 52 1 103 5 112 8 17 -6 191
-23 285 -5 28 -11 87 -12 130 -1 43 -8 87 -14 99 -7 11 -16 56 -20 100 -8 99
-31 240 -42 257 -4 6 -8 35 -9 64 0 32 -6 59 -16 70 -9 10 -18 32 -21 48 -13
79 -39 180 -52 206 -8 15 -15 39 -15 53 0 21 -11 48 -51 128 -5 10 -9 23 -9
29 0 7 -8 30 -19 53 -10 23 -24 57 -30 76 -40 114 -55 147 -72 166 -10 11 -19
29 -19 40 0 11 -4 24 -9 29 -5 6 -22 46 -36 90 -15 44 -33 94 -40 110 -7 17
-20 57 -30 90 -10 33 -24 80 -31 104 -8 25 -14 57 -14 73 0 15 -5 28 -11 28
-6 0 -9 12 -7 28 l3 27 105 1 c297 2 377 6 423 21 37 12 50 13 62 3 7 -6 24
-10 37 -9 13 2 38 -3 55 -10 21 -9 47 -11 75 -6 24 4 69 8 100 8 31 1 60 5 64
10 12 11 112 8 199 -8 44 -8 109 -15 145 -15 37 0 71 -5 78 -12 8 -8 15 -8 24
-1 13 10 129 23 233 26 28 1 53 6 57 11 8 12 237 16 267 5 15 -6 28 -6 37 2
10 8 37 8 106 -1 192 -25 228 -29 310 -31 66 -2 89 1 108 14 14 9 32 17 41 17
9 0 23 8 32 18 13 14 14 29 7 86 -7 59 -13 74 -40 100 -19 18 -34 26 -37 20
-8 -21 -157 24 -192 58 -27 27 -41 31 -123 40 -51 6 -118 11 -149 12 -32 0
-63 7 -73 15 -14 12 -67 15 -264 17 -136 1 -281 -2 -324 -7 -42 -5 -152 -10
-245 -12 -182 -2 -833 10 -923 18 -30 2 -64 1 -76 -4z"/>
</g>
</svg>
